# xmcd CD database file
#
# Track frame offsets:
#	150
#	24209
#	60709
#	88709
#	118647
#	159416
#	178157
#	205068
#
# Disc length: 3011 seconds
#
# Revision: 1
# Processed by: cddbd v1.5.1PL2 Copyright (c) Steve Scherf et al.
# Submitted via: CDex 1.51
#
DISCID=600bc108
DTITLE=Jesse Van Ruller - Views
DYEAR=2006
DGENRE=Jazz
TTITLE0=Silk Rush
TTITLE1=Super Dry 
TTITLE2=Holistic
TTITLE3=Sway
TTITLE4=Amsterdam
TTITLE5=Gladiator Glamour
TTITLE6=Tear Jam
TTITLE7=Strung Out
EXTD=YEAR: 2006
EXTT0=
EXTT1=
EXTT2=
EXTT3=
EXTT4=
EXTT5=
EXTT6=
EXTT7=
PLAYORDER=
